<?xml version="1.0" encoding="UTF-8"?>
<svg id="Calque_1" xmlns="http://www.w3.org/2000/svg" version="1.1" viewBox="0 0 160 160">
  <!-- Generator: Adobe Illustrator 29.2.1, SVG Export Plug-In . SVG Version: 2.1.0 Build 116)  -->
  <defs>
    <style>
      .st0 {
        fill: #003f5d;
      }
    </style>
  </defs>
  <path class="st0" d="M88.29,96.21c-.25-5.06.06-10.42,0-15.53,0-.18.07-.47-.11-.58-.13-2.76-1.66-5.26-4.12-6.66-3.4-1.94-6.79-.18-9.81-3.52-5.95-6.59,3.54-15.85,10.38-9.97,3.14,2.7,1.76,5.3,3.03,8.41,1.09,2.68,3.78,4.65,6.7,5.05.73.1,1.64.03,2.36.15,3.3.51,5.75,3.19,6.09,6.38-.31,5.36.4,11.13,0,16.44-.66,8.71-14.09,8.65-14.53-.16Z"/>
  <path class="st0" d="M56.74,96.21c-.3-5.28.22-10.81,0-16.11.54-8.73,13.9-8.73,14.53-.06.39,5.35-.3,11.14,0,16.54-1.03,8.56-14.03,8.35-14.52-.37Z"/>
</svg>